<svg version="1.1" id="Layer_1" xmlns="http://www.w3.org/2000/svg" xmlns:xlink="http://www.w3.org/1999/xlink" x="0px" y="0px"
	 width="100%" viewBox="0 0 500 500" enable-background="new 0 0 500 500" xml:space="preserve">
<path fill="#000000" opacity="1.000000" stroke="none" 
	d="
M222.000000,501.000000 
	C148.000015,501.000000 74.500038,501.000000 1.000039,501.000000 
	C1.000026,334.333405 1.000026,167.666779 1.000013,1.000129 
	C167.666565,1.000086 334.333130,1.000086 500.999756,1.000043 
	C500.999847,167.666534 500.999847,334.333069 500.999939,500.999817 
	C408.166656,501.000000 315.333344,501.000000 222.000000,501.000000 
M340.696075,239.016632 
	C341.487244,238.366638 342.278412,237.716644 343.000000,237.000000 
	C343.000000,237.000000 343.068787,237.067291 343.729340,236.828369 
	C345.164612,233.893967 347.446594,231.069763 347.846100,228.000534 
	C348.525604,222.780014 348.016083,217.405289 348.014099,212.095367 
	C348.010620,202.812119 348.062622,193.528320 347.960388,184.246201 
	C347.944855,182.836700 347.225037,181.434952 346.311096,179.638702 
	C339.230957,172.590958 332.246521,165.442047 324.991608,158.579056 
	C323.504272,157.172073 321.022705,156.175690 318.968109,156.118622 
	C309.650269,155.859879 300.321167,155.994766 290.996185,156.008621 
	C283.534058,156.019699 278.066681,161.470917 277.237549,169.408249 
	C277.114471,177.239273 276.991425,185.070282 276.105072,192.878479 
	C273.078674,192.253403 270.067444,191.195618 267.022888,191.088898 
	C259.550171,190.826920 252.062103,191.004227 244.580215,191.002823 
	C237.870605,191.001587 236.653854,192.398529 237.531799,199.587753 
	C237.777542,199.611725 237.929611,199.743698 237.955734,200.458618 
	C238.079559,200.807343 238.326324,200.973938 239.193314,201.721268 
	C250.319931,201.818497 261.446808,201.976028 272.572754,201.924347 
	C273.750397,201.918869 274.922333,200.685303 276.023651,200.002899 
	C276.023651,200.002899 276.053406,200.072342 276.537750,200.026413 
	C276.537750,200.026413 277.010773,200.143402 276.944000,200.539688 
	C276.944000,200.539688 277.039856,200.929962 277.017456,201.883667 
	C277.012787,206.964905 276.890106,212.049759 277.045563,217.126099 
	C277.146759,220.430222 277.652710,223.721970 277.996338,227.786362 
	C278.272095,229.187653 278.547852,230.588959 278.906464,232.840744 
	C277.282532,233.226913 275.660187,233.941956 274.034424,233.949768 
	C250.666122,234.062195 227.297379,234.079376 203.123734,234.437042 
	C203.083496,242.824036 203.015823,251.211136 203.048340,259.597839 
	C203.051361,260.377625 203.689438,261.154968 204.825668,262.065979 
	C206.438095,262.558990 208.050537,263.051971 209.662979,263.544952 
	C209.069794,264.736633 208.476593,265.928314 206.962784,267.043640 
	C191.561691,267.027679 176.160614,267.011749 160.511383,266.900299 
	C160.511383,266.900299 160.288895,267.045837 160.030182,266.331909 
	C157.753052,260.928345 162.411606,262.333618 165.009064,261.834717 
	C165.009064,252.953384 165.030426,244.412582 164.963654,235.872452 
	C164.958908,235.266907 164.305801,234.666397 163.036362,233.920746 
	C158.792465,233.920746 154.548569,233.920746 150.386292,233.920746 
	C149.973114,239.167084 149.678940,243.734131 149.240829,248.287323 
	C148.404129,256.983337 147.261230,265.656189 146.667877,274.367432 
	C146.143509,282.066193 146.372833,289.814362 145.929733,297.521179 
	C145.611389,303.058197 144.733795,308.563080 144.433228,314.886749 
	C188.161270,314.886749 231.889313,314.886749 275.617371,314.886749 
	C275.926636,315.304932 276.235931,315.723083 276.545197,316.141266 
	C275.357056,317.411224 274.168915,318.681213 272.154602,319.997864 
	C270.776001,319.981964 269.397430,319.966064 267.638092,319.157806 
	C225.225571,319.105408 182.813034,319.047394 140.400513,319.041718 
	C139.570450,319.041626 138.740280,319.656891 137.978485,320.016754 
	C137.978485,320.016754 137.933853,319.956146 137.118561,320.302338 
	C137.120758,329.215576 137.122955,338.128845 137.395920,347.870789 
	C139.223297,347.918243 141.050674,348.006866 142.878052,348.007172 
	C189.479416,348.014801 236.080948,348.066193 282.681915,347.927307 
	C287.115112,347.914093 291.539062,346.655823 295.980804,346.079681 
	C296.905396,345.959717 297.889404,346.304321 298.846771,346.429474 
	C305.441711,347.291504 312.019135,348.639526 318.636749,348.880310 
	C325.689270,349.136871 332.863037,348.900848 339.830658,347.857147 
	C346.911804,346.796417 353.926392,344.746613 359.007294,338.999481 
	C359.007294,338.999481 359.054779,339.075287 359.781952,339.014130 
	C363.055450,337.462372 364.349487,334.872314 363.995880,330.360443 
	C363.996094,306.790131 363.799103,283.216949 364.145477,259.651733 
	C364.224670,254.263260 361.967285,251.013077 357.801117,249.030930 
	C352.102386,246.319656 346.065094,244.319962 339.917084,241.392563 
	C339.356079,241.114471 338.795074,240.836380 338.209717,240.546219 
	C338.972595,239.937561 339.521149,239.499863 340.003326,239.012100 
	C340.003326,239.012100 340.034607,239.089142 340.696075,239.016632 
M170.404556,261.865112 
	C177.490646,261.910065 184.577545,262.031128 191.662308,261.954132 
	C193.818466,261.930695 195.968704,261.361450 198.884094,260.612671 
	C198.929413,247.086105 199.057877,233.558762 198.931046,220.033813 
	C198.911865,217.988510 197.704056,215.954346 197.017776,213.985809 
	C197.017776,213.985809 197.091888,213.968063 196.922623,213.387375 
	C196.558578,213.270187 196.194550,213.153000 195.182877,212.634827 
	C188.882309,212.102203 182.575272,211.179474 176.285309,211.283936 
	C174.488708,211.313766 172.741608,214.322250 170.178101,216.342300 
	C170.157410,231.242096 170.136703,246.141891 170.404556,261.865112 
M254.048401,208.781647 
	C254.048401,215.295517 254.048401,221.809402 254.048401,229.245361 
	C255.931305,228.840149 257.837372,228.429977 260.214569,228.669952 
	C260.588379,221.488953 260.962189,214.307953 261.364716,206.575470 
	C258.403534,207.087036 256.264374,207.456589 254.048401,208.781647 
z"/>
<path fill="#05604B" opacity="1.000000" stroke="none" 
	d="
M144.105682,314.082275 
	C144.733795,308.563080 145.611389,303.058197 145.929733,297.521179 
	C146.372833,289.814362 146.143509,282.066193 146.667877,274.367432 
	C147.261230,265.656189 148.404129,256.983337 149.240829,248.287323 
	C149.678940,243.734131 149.973114,239.167084 150.386292,233.920746 
	C154.548569,233.920746 158.792465,233.920746 163.455826,234.453400 
	C163.875290,243.440765 163.875290,251.895493 163.875290,258.914764 
	C161.060883,261.060852 159.183548,262.492401 157.306213,263.923920 
	C158.300446,264.964539 159.294678,266.005188 160.288895,267.045837 
	C160.288895,267.045837 160.511383,266.900299 160.913208,267.299561 
	C176.270355,267.783112 191.225647,267.876617 206.181107,267.916168 
	C206.747833,267.917664 207.315933,267.397217 207.883408,267.119995 
	C208.476593,265.928314 209.069794,264.736633 209.662979,263.544952 
	C208.050537,263.051971 206.438095,262.558990 204.499222,261.541016 
	C204.164017,252.363937 204.155258,243.711853 204.605408,235.036316 
	C228.462051,235.006668 251.859863,234.971619 275.257324,235.048782 
	C277.140167,235.054977 279.020447,235.832855 280.748901,236.571503 
	C281.019653,238.923584 281.443451,240.956299 281.910339,243.406799 
	C281.953430,245.421585 281.953430,247.018570 281.953430,248.493210 
	C290.068481,246.188339 297.560760,244.060364 305.438141,241.925064 
	C307.653839,241.477280 309.484436,241.036819 311.315002,240.596375 
	C311.276031,240.413193 311.237030,240.230011 311.198029,240.046829 
	C303.134521,240.046829 295.070984,240.046829 286.673676,240.028976 
	C285.554657,239.641388 284.769470,239.271652 283.983917,238.572998 
	C283.651917,237.688446 283.320221,237.132828 282.899719,236.475159 
	C282.688324,236.241409 282.540558,236.150833 282.158569,235.827423 
	C280.907562,234.365723 279.865601,233.177994 278.823639,231.990250 
	C278.547852,230.588959 278.272095,229.187653 278.000427,226.932892 
	C277.998871,222.253098 278.112183,218.421951 277.956848,214.601730 
	C277.771301,210.039597 277.355774,205.486801 277.039856,200.929962 
	C277.039856,200.929962 276.944000,200.539688 277.062347,199.988403 
	C277.169922,198.953064 277.159149,198.469009 277.432495,197.682816 
	C277.803284,187.905411 277.889954,178.430161 277.976654,168.954895 
	C278.066681,161.470917 283.534058,156.019699 290.996185,156.008621 
	C300.321167,155.994766 309.650269,155.859879 318.968109,156.118622 
	C321.022705,156.175690 323.504272,157.172073 324.991608,158.579056 
	C332.246521,165.442047 339.230957,172.590958 346.534546,180.298340 
	C346.783936,191.541641 346.854553,202.125427 346.821350,212.708893 
	C346.795654,220.896271 348.073273,229.353256 342.385620,236.505142 
	C342.382599,236.509003 342.831177,236.872040 343.068787,237.067291 
	C343.068787,237.067291 343.000000,237.000000 342.763702,236.655457 
	C341.696472,237.236984 340.865540,238.163071 340.034607,239.089142 
	C340.034607,239.089142 340.003326,239.012100 339.777161,238.668488 
	C337.464142,239.075546 335.377258,239.826218 333.290405,240.576889 
	C333.255585,240.813995 333.220764,241.051117 333.185944,241.288223 
	C335.514954,241.530563 337.843933,241.772919 340.172943,242.015259 
	C346.065094,244.319962 352.102386,246.319656 357.801117,249.030930 
	C361.967285,251.013077 364.224670,254.263260 364.145477,259.651733 
	C363.799103,283.216949 363.996094,306.790131 363.668152,331.048157 
	C361.911865,334.182373 360.483307,336.628815 359.054779,339.075287 
	C359.054779,339.075287 359.007294,338.999481 358.774811,338.695129 
	C337.713226,350.049561 315.780273,348.493805 293.801941,344.503265 
	C292.457947,345.641510 290.989014,346.705688 289.412903,346.899780 
	C286.789368,347.222809 284.097168,346.990021 281.433868,346.987579 
	C233.663666,346.943787 185.893478,346.899475 138.092377,346.396942 
	C138.018936,337.277832 137.976395,328.616974 137.933853,319.956146 
	C137.933853,319.956146 137.978485,320.016754 138.312210,320.205078 
	C181.666779,320.422241 224.687622,320.451111 268.150482,320.666656 
	C270.161041,320.729858 271.729553,320.606384 273.688446,320.491028 
	C279.473328,320.610016 276.346283,316.631958 277.391968,314.082275 
	C232.688004,314.082275 188.396835,314.082275 144.105682,314.082275 
M285.997864,167.997452 
	C285.997864,167.997452 286.095398,168.000732 285.478210,167.813232 
	C285.384033,168.211777 285.289886,168.610321 284.992310,169.925537 
	C284.976044,187.655899 284.936829,205.386307 284.983337,223.116501 
	C284.987427,224.678329 285.551971,226.238678 286.191925,228.482742 
	C288.198334,233.485718 292.931213,232.840973 296.717804,232.869827 
	C307.614075,232.952927 318.515594,232.420685 329.414276,232.103790 
	C337.023407,231.882538 337.765564,231.316086 339.582306,224.577271 
	C339.428436,223.733353 339.274567,222.889450 339.027130,221.106735 
	C339.015076,212.799210 338.998444,204.491669 338.992279,196.184143 
	C338.985657,187.255508 338.989929,187.255508 329.908112,186.270630 
	C329.232269,186.245865 328.556427,186.221100 327.179626,186.055939 
	C325.458038,185.373901 323.736481,184.691864 321.935883,183.364487 
	C321.291412,182.940704 320.646973,182.516937 319.921295,182.073761 
	C319.921295,182.073761 319.906677,181.991562 319.915894,181.359253 
	C319.514893,180.945480 319.113922,180.531693 318.214264,179.603622 
	C317.454620,176.722076 316.694946,173.840515 316.004181,170.054947 
	C316.004181,167.798187 316.004181,165.541428 316.004181,162.968857 
	C307.425995,162.968857 299.380463,162.885590 291.340820,163.065262 
	C290.229340,163.090118 289.146973,164.415909 288.043518,165.037415 
	C288.043518,165.037415 288.145294,165.047867 287.280670,165.062943 
	C287.207428,165.733292 287.134186,166.403641 287.018890,167.005737 
	C287.018890,167.005737 287.095856,167.028183 286.352753,166.625137 
	C286.233002,167.115067 286.113251,167.605011 285.997864,167.997452 
M272.183777,288.467316 
	C269.139069,288.152557 266.075592,287.519348 263.059967,287.697388 
	C262.017883,287.758911 260.498688,289.756256 260.325531,291.023499 
	C260.208710,291.878510 261.903351,293.371277 263.090088,293.899933 
	C264.187592,294.388855 265.687469,293.974579 267.784973,293.989655 
	C270.353699,293.473816 274.460480,294.356262 272.183777,288.467316 
M225.856659,293.993866 
	C228.477066,293.519226 231.097473,293.044586 234.285965,292.467041 
	C232.995529,290.744781 232.519943,290.110046 232.387390,288.649353 
	C229.924561,288.186157 227.409271,287.198547 225.016693,287.437805 
	C223.325134,287.606934 221.799728,289.437622 220.200150,290.526550 
	C221.812744,291.673889 223.425323,292.821198 225.856659,293.993866 
M242.509567,293.694763 
	C246.421921,294.084839 250.441711,294.974365 253.650482,291.574463 
	C253.001694,290.697693 252.526093,290.054993 252.301010,288.578339 
	C249.167358,288.229401 245.971680,287.335663 242.917343,287.683411 
	C239.807816,288.037415 239.582886,290.241058 242.509567,293.694763 
M295.332642,333.581940 
	C300.683350,334.709259 306.004944,336.006256 311.390503,336.930481 
	C324.881622,339.245667 337.899200,337.424744 350.333801,331.774414 
	C355.152802,329.584656 356.073029,326.380676 353.713928,320.178223 
	C351.971527,320.547699 350.232361,320.933075 348.486176,321.283813 
	C342.165527,322.553375 335.893890,324.347382 329.509430,324.958588 
	C317.390015,326.118805 305.295135,325.529633 293.023010,321.537201 
	C293.023010,324.831940 292.872223,327.628082 293.109222,330.390961 
	C293.186584,331.292755 294.274170,332.107910 295.332642,333.581940 
M289.388184,308.693909 
	C289.907654,309.091766 290.375549,309.599487 290.954224,309.871216 
	C301.907867,315.014465 313.368286,316.439667 325.382965,315.174988 
	C333.303009,314.341278 341.245056,314.235596 348.772919,311.019562 
	C354.330353,308.645294 356.228180,304.747040 353.701355,298.179840 
	C352.437073,298.418976 351.118073,298.501587 349.917053,298.921600 
	C338.446442,302.932892 326.610077,304.500427 314.589020,303.153717 
	C305.329071,302.116302 296.176025,300.124786 286.084503,298.405731 
	C286.974915,301.423279 287.968231,304.789612 289.388184,308.693909 
M206.555893,274.125000 
	C191.772736,274.076508 176.989105,274.080841 162.206787,273.942291 
	C158.534302,273.907898 157.114136,275.571503 157.137970,279.056671 
	C157.189072,286.532623 157.287338,294.012604 157.100311,301.484253 
	C156.991867,305.817017 158.749237,307.311737 163.031723,307.255890 
	C176.819046,307.075958 190.610397,307.223450 204.399582,307.141937 
	C205.904938,307.133026 207.406342,306.457306 209.427155,305.807709 
	C209.662994,305.500031 209.898819,305.192352 210.726837,304.320465 
	C210.833206,296.962952 211.017853,289.605133 210.990952,282.248108 
	C210.984222,280.407593 210.296783,278.569519 209.603561,276.202972 
	C208.714676,275.768646 207.825790,275.334290 206.555893,274.125000 
M223.544754,267.720795 
	C238.770081,267.796936 253.995392,267.882141 269.220795,267.913544 
	C269.782562,267.914703 270.345398,267.390198 271.676453,266.918610 
	C272.452148,265.259308 273.774109,263.639343 273.897064,261.933014 
	C274.215179,257.517303 274.234741,253.046661 273.910522,248.631927 
	C273.742065,246.338226 272.593231,244.116531 271.328064,241.249817 
	C255.773041,241.153641 240.217941,241.069595 224.663086,240.951263 
	C221.470123,240.926956 220.199432,242.658905 220.188583,245.601959 
	C220.167221,251.397629 220.081635,257.196594 220.260956,262.986847 
	C220.301819,264.306061 221.312302,265.595276 222.450195,266.913879 
	C222.633759,266.967712 222.817322,267.021545 223.544754,267.720795 
M353.688507,274.175598 
	C352.420319,274.342621 351.082703,274.304749 349.894379,274.707458 
	C333.197937,280.365540 316.261230,280.412842 299.165527,276.990417 
	C296.109711,276.378632 293.066925,275.701752 289.215576,275.182526 
	C286.252502,281.917572 287.460938,286.259888 293.706451,289.056580 
	C297.397614,290.709503 301.412811,291.807281 305.391571,292.619293 
	C320.267303,295.655334 334.775360,293.588043 348.961365,288.758514 
	C352.946472,287.401794 355.593201,279.444305 353.688507,274.175598 
M289.353485,262.598724 
	C302.624664,272.725159 345.436676,272.232178 354.236786,259.385681 
	C351.431122,257.866211 348.694824,256.384369 345.767090,254.206024 
	C332.459076,249.326782 318.777344,249.040634 305.077820,251.644287 
	C299.640869,252.677597 294.402679,255.005112 289.246124,257.156006 
	C286.824341,258.166168 285.495270,260.191498 289.353485,262.598724 
M244.107544,280.909027 
	C244.437668,280.936035 244.769455,280.999329 245.097672,280.984406 
	C248.276443,280.840302 253.230072,281.915070 253.185730,277.704865 
	C253.136292,273.012665 248.145325,275.198059 245.197220,275.091675 
	C243.917496,275.045471 242.600296,276.036896 241.300125,276.557007 
	C241.976624,277.916901 242.653137,279.276825 244.107544,280.909027 
M231.111969,279.998047 
	C234.899063,278.699860 234.043518,276.220367 231.411072,275.479706 
	C228.256622,274.592194 224.661697,275.270142 220.902481,275.270142 
	C222.534653,282.490845 226.399490,281.367462 231.111969,279.998047 
M273.376740,277.072144 
	C271.043396,272.887634 267.186066,275.515625 264.044128,275.140656 
	C263.168396,275.036102 261.216766,276.622955 261.313751,277.145081 
	C261.549225,278.413269 262.690308,280.501953 263.480408,280.508179 
	C267.000244,280.536102 270.946014,281.401703 273.376740,277.072144 
M224.867218,302.111389 
	C223.692841,302.871399 222.518463,303.631409 221.344086,304.391449 
	C222.542999,305.223419 223.742661,306.750641 224.940659,306.749359 
	C227.844467,306.746216 230.747498,306.031372 233.650833,305.603363 
	C233.656891,304.800903 233.662949,303.998474 233.669006,303.196014 
	C231.016159,302.834656 228.363297,302.473328 224.867218,302.111389 
M263.193512,306.820953 
	C265.341736,306.825104 267.545105,307.117310 269.616547,306.720520 
	C270.777008,306.498260 271.718842,305.134644 272.759186,304.285278 
	C271.663269,303.559601 270.650330,302.474152 269.450867,302.197479 
	C267.881439,301.835571 266.164642,302.110413 264.511230,302.115570 
	C260.736389,302.127350 260.928925,304.008698 263.193512,306.820953 
M248.251938,302.111542 
	C245.924255,302.260681 243.596573,302.409821 240.883270,302.583679 
	C243.207886,307.614594 247.382233,308.213287 253.567703,304.615631 
	C251.760529,303.604523 250.425583,302.857666 248.251938,302.111542 
M324.720642,174.712311 
	C326.962769,175.651581 329.204895,176.590851 331.447021,177.530136 
	C331.647797,177.127670 331.848541,176.725220 332.049316,176.322769 
	C329.327301,174.607574 326.605316,172.892380 322.772369,170.477158 
	C323.580627,172.577560 323.904968,173.420410 324.720642,174.712311 
z"/>
<path fill="#055F4A" opacity="1.000000" stroke="none" 
	d="
M170.971802,215.964874 
	C172.741608,214.322250 174.488708,211.313766 176.285309,211.283936 
	C182.575272,211.179474 188.882309,212.102203 195.525330,213.228012 
	C196.275803,213.870163 196.683853,213.919113 197.091888,213.968063 
	C197.091888,213.968063 197.017776,213.985809 196.700989,214.329132 
	C196.513046,230.077164 196.641922,245.481873 196.317505,260.866455 
	C187.633698,260.798553 179.403168,260.750793 171.142654,260.253815 
	C171.065720,245.191345 171.018768,230.578110 170.971802,215.964874 
z"/>
<path fill="#055F4A" opacity="1.000000" stroke="none" 
	d="
M238.696030,200.958435 
	C238.326324,200.973938 238.079559,200.807343 237.801376,200.201828 
	C237.437119,199.817749 237.315353,199.632599 237.281723,199.389603 
	C236.653854,192.398529 237.870605,191.001587 244.580215,191.002823 
	C252.062103,191.004227 259.550171,190.826920 267.022888,191.088898 
	C270.067444,191.195618 273.078674,192.253403 276.360535,193.249176 
	C276.432190,195.109985 276.248413,196.600113 275.933167,198.466278 
	C275.885620,199.252335 275.969513,199.662338 276.053406,200.072342 
	C276.053406,200.072342 276.023651,200.002899 275.658997,199.812607 
	C273.255493,200.076920 271.221222,200.898605 269.177032,200.924103 
	C259.018127,201.050766 248.856613,200.967651 238.696030,200.958435 
z"/>
<path fill="#F6FAF9" opacity="1.000000" stroke="none" 
	d="
M138.123276,346.855225 
	C185.893478,346.899475 233.663666,346.943787 281.433868,346.987579 
	C284.097168,346.990021 286.789368,347.222809 289.412903,346.899780 
	C290.989014,346.705688 292.457947,345.641510 293.801941,344.503265 
	C315.780273,348.493805 337.713226,350.049561 358.808167,338.725037 
	C353.926392,344.746613 346.911804,346.796417 339.830658,347.857147 
	C332.863037,348.900848 325.689270,349.136871 318.636749,348.880310 
	C312.019135,348.639526 305.441711,347.291504 298.846771,346.429474 
	C297.889404,346.304321 296.905396,345.959717 295.980804,346.079681 
	C291.539062,346.655823 287.115112,347.914093 282.681915,347.927307 
	C236.080948,348.066193 189.479416,348.014801 142.878052,348.007172 
	C141.050674,348.006866 139.223297,347.918243 137.511139,347.415649 
	C137.791992,346.925415 137.957642,346.890320 138.123276,346.855225 
z"/>
<path fill="#FFFFFF" opacity="1.000000" stroke="none" 
	d="
M267.708466,320.479980 
	C224.687622,320.451111 181.666779,320.422241 138.278046,320.189209 
	C138.740280,319.656891 139.570450,319.041626 140.400513,319.041718 
	C182.813034,319.047394 225.225571,319.105408 267.663391,319.635254 
	C267.688660,320.112671 267.708466,320.480011 267.708466,320.479980 
z"/>
<path fill="#FFFFFF" opacity="1.000000" stroke="none" 
	d="
M144.269455,314.484497 
	C188.396835,314.082275 232.688004,314.082275 277.391968,314.082275 
	C276.346283,316.631958 279.473328,320.610016 273.696350,320.306213 
	C273.313904,320.113281 272.980774,319.951202 272.980774,319.951202 
	C274.168915,318.681213 275.357056,317.411224 276.545197,316.141266 
	C276.235931,315.723083 275.926636,315.304932 275.617371,314.886749 
	C231.889313,314.886749 188.161270,314.886749 144.269455,314.484497 
z"/>
<path fill="#09624D" opacity="1.000000" stroke="none" 
	d="
M259.743408,228.019806 
	C257.837372,228.429977 255.931305,228.840149 254.048401,229.245361 
	C254.048401,221.809402 254.048401,215.295517 254.526062,208.348511 
	C256.568817,207.915375 258.133911,207.915375 259.743408,207.915375 
	C259.743408,214.991608 259.743408,221.505707 259.743408,228.019806 
z"/>
<path fill="#F2F7F6" opacity="1.000000" stroke="none" 
	d="
M196.770782,260.886597 
	C196.641922,245.481873 196.513046,230.077164 196.715118,214.293732 
	C197.704056,215.954346 198.911865,217.988510 198.931046,220.033813 
	C199.057877,233.558762 198.929413,247.086105 198.164490,260.794250 
	C197.220184,260.946075 196.995483,260.916321 196.770782,260.886597 
z"/>
<path fill="#418676" opacity="1.000000" stroke="none" 
	d="
M280.901917,236.252121 
	C279.020447,235.832855 277.140167,235.054977 275.257324,235.048782 
	C251.859863,234.971619 228.462051,235.006668 204.542572,234.803177 
	C204.020813,234.593506 203.928726,234.119461 203.928726,234.119461 
	C227.297379,234.079376 250.666122,234.062195 274.034424,233.949768 
	C275.660187,233.941956 277.282532,233.226913 278.865051,232.415497 
	C279.865601,233.177994 280.907562,234.365723 281.788940,235.854324 
	C281.386169,236.187500 281.144043,236.219818 280.901917,236.252121 
z"/>
<path fill="#F6FAF9" opacity="1.000000" stroke="none" 
	d="
M343.399048,236.947830 
	C342.831177,236.872040 342.382599,236.509003 342.385620,236.505142 
	C348.073273,229.353256 346.795654,220.896271 346.821350,212.708893 
	C346.854553,202.125427 346.783936,191.541641 346.794495,180.493805 
	C347.225037,181.434952 347.944855,182.836700 347.960388,184.246201 
	C348.062622,193.528320 348.010620,202.812119 348.014099,212.095367 
	C348.016083,217.405289 348.525604,222.780014 347.846100,228.000534 
	C347.446594,231.069763 345.164612,233.893967 343.399048,236.947830 
z"/>
<path fill="#85B1A7" opacity="1.000000" stroke="none" 
	d="
M207.423096,267.081818 
	C207.315933,267.397217 206.747833,267.917664 206.181107,267.916168 
	C191.225647,267.876617 176.270355,267.783112 161.037262,267.347321 
	C176.160614,267.011749 191.561691,267.027679 207.423096,267.081818 
z"/>
<path fill="#F6FAF9" opacity="1.000000" stroke="none" 
	d="
M160.159546,266.688873 
	C159.294678,266.005188 158.300446,264.964539 157.306213,263.923920 
	C159.183548,262.492401 161.060883,261.060852 163.875290,258.914764 
	C163.875290,251.895493 163.875290,243.440765 163.914734,234.524796 
	C164.305801,234.666397 164.958908,235.266907 164.963654,235.872452 
	C165.030426,244.412582 165.009064,252.953384 165.009064,261.834717 
	C162.411606,262.333618 157.753052,260.928345 160.159546,266.688873 
z"/>
<path fill="#85B1A7" opacity="1.000000" stroke="none" 
	d="
M170.574951,216.153580 
	C171.018768,230.578110 171.065720,245.191345 170.881470,260.347778 
	C170.472198,260.941193 170.294113,260.991425 170.116013,261.041687 
	C170.136703,246.141891 170.157410,231.242096 170.574951,216.153580 
z"/>
<path fill="#F6FAF9" opacity="1.000000" stroke="none" 
	d="
M238.944672,201.339844 
	C248.856613,200.967651 259.018127,201.050766 269.177032,200.924103 
	C271.221222,200.898605 273.255493,200.076920 275.695618,199.821899 
	C274.922333,200.685303 273.750397,201.918869 272.572754,201.924347 
	C261.446808,201.976028 250.319931,201.818497 238.944672,201.339844 
z"/>
<path fill="#4E8E7F" opacity="1.000000" stroke="none" 
	d="
M276.064636,198.090240 
	C276.248413,196.600113 276.432190,195.109985 276.742157,193.260590 
	C276.991425,185.070282 277.114471,177.239273 277.607117,169.181580 
	C277.889954,178.430161 277.803284,187.905411 277.160034,197.693207 
	C276.423828,198.033905 276.244202,198.062073 276.064636,198.090240 
z"/>
<path fill="#D5E4E1" opacity="1.000000" stroke="none" 
	d="
M259.979004,228.344879 
	C259.743408,221.505707 259.743408,214.991608 259.743408,207.915375 
	C258.133911,207.915375 256.568817,207.915375 254.564453,207.870758 
	C256.264374,207.456589 258.403534,207.087036 261.364716,206.575470 
	C260.962189,214.307953 260.588379,221.488953 259.979004,228.344879 
z"/>
<path fill="#C4D9D5" opacity="1.000000" stroke="none" 
	d="
M203.526230,234.278259 
	C203.928726,234.119461 204.020813,234.593506 204.083649,234.826630 
	C204.155258,243.711853 204.164017,252.363937 204.102707,261.474731 
	C203.689438,261.154968 203.051361,260.377625 203.048340,259.597839 
	C203.015823,251.211136 203.083496,242.824036 203.526230,234.278259 
z"/>
<path fill="#FFFFFF" opacity="1.000000" stroke="none" 
	d="
M170.260284,261.453400 
	C170.294113,260.991425 170.472198,260.941193 170.911438,260.796997 
	C179.403168,260.750793 187.633698,260.798553 196.317505,260.866455 
	C196.995483,260.916321 197.220184,260.946075 197.783264,261.009033 
	C195.968704,261.361450 193.818466,261.930695 191.662308,261.954132 
	C184.577545,262.031128 177.490646,261.910065 170.260284,261.453400 
z"/>
<path fill="#85B1A7" opacity="1.000000" stroke="none" 
	d="
M138.092377,346.396973 
	C137.957642,346.890320 137.791992,346.925415 137.375763,347.001282 
	C137.122955,338.128845 137.120758,329.215576 137.526215,320.129242 
	C137.976395,328.616974 138.018936,337.277832 138.092377,346.396973 
z"/>
<path fill="#4E8E7F" opacity="1.000000" stroke="none" 
	d="
M277.028656,201.406815 
	C277.355774,205.486801 277.771301,210.039597 277.956848,214.601730 
	C278.112183,218.421951 277.998871,222.253098 277.990906,226.549332 
	C277.652710,223.721970 277.146759,220.430222 277.045563,217.126099 
	C276.890106,212.049759 277.012787,206.964905 277.028656,201.406815 
z"/>
<path fill="#F6FAF9" opacity="1.000000" stroke="none" 
	d="
M359.418365,339.044708 
	C360.483307,336.628815 361.911865,334.182373 363.578064,331.529755 
	C364.349487,334.872314 363.055450,337.462372 359.418365,339.044708 
z"/>
<path fill="#F6FAF9" opacity="1.000000" stroke="none" 
	d="
M340.045013,241.703918 
	C337.843933,241.772919 335.514954,241.530563 333.185944,241.288223 
	C333.220764,241.051117 333.255585,240.813995 333.290405,240.576889 
	C335.377258,239.826218 337.464142,239.075546 339.810364,238.693512 
	C339.521149,239.499863 338.972595,239.937561 338.209717,240.546219 
	C338.795074,240.836380 339.356079,241.114471 340.045013,241.703918 
z"/>
<path fill="#85B1A7" opacity="1.000000" stroke="none" 
	d="
M272.567688,319.974548 
	C272.980774,319.951202 273.313904,320.113281 273.306000,320.298096 
	C271.729553,320.606384 270.161041,320.729858 268.150482,320.666687 
	C267.708466,320.480011 267.688660,320.112671 267.853760,320.031433 
	C269.397430,319.966064 270.776001,319.981964 272.567688,319.974548 
z"/>
<path fill="#F6FAF9" opacity="1.000000" stroke="none" 
	d="
M340.365356,239.052887 
	C340.865540,238.163071 341.696472,237.236984 342.798492,236.688782 
	C342.278412,237.716644 341.487244,238.366638 340.365356,239.052887 
z"/>
<path fill="#F6FAF9" opacity="1.000000" stroke="none" 
	d="
M275.933167,198.466278 
	C276.244202,198.062073 276.423828,198.033905 276.875916,197.995361 
	C277.159149,198.469009 277.169922,198.953064 277.095734,199.790253 
	C277.010773,200.143402 276.537750,200.026413 276.295593,200.049377 
	C275.969513,199.662338 275.885620,199.252335 275.933167,198.466278 
z"/>
<path fill="#F6FAF9" opacity="1.000000" stroke="none" 
	d="
M237.406769,199.488678 
	C237.315353,199.632599 237.437119,199.817749 237.817505,199.964355 
	C237.929611,199.743698 237.777542,199.611725 237.406769,199.488678 
z"/>
<path fill="#F2F7F6" opacity="1.000000" stroke="none" 
	d="
M197.007263,213.677719 
	C196.683853,213.919113 196.275803,213.870163 195.849136,213.428497 
	C196.194550,213.153000 196.558578,213.270187 197.007263,213.677719 
z"/>
<path fill="#000000" opacity="1.000000" stroke="none" 
	d="
M339.135010,224.948044 
	C337.765564,231.316086 337.023407,231.882538 329.414276,232.103790 
	C318.515594,232.420685 307.614075,232.952927 296.717804,232.869827 
	C292.931213,232.840973 288.198334,233.485718 286.056641,227.685638 
	C285.883789,207.594437 285.846222,188.300369 285.883820,168.755890 
	C286.004425,168.337234 286.049896,168.168991 286.095398,168.000732 
	C286.095398,168.000732 285.997864,167.997452 286.270386,167.981003 
	C286.727203,167.652420 286.911530,167.340302 287.095856,167.028183 
	C287.095856,167.028183 287.018890,167.005737 287.379425,166.911163 
	C287.875061,166.227036 288.010193,165.637451 288.145325,165.047867 
	C288.145294,165.047867 288.043518,165.037415 288.440369,165.328537 
	C297.498199,164.849106 306.159180,164.078537 314.291992,163.354965 
	C315.024872,166.746155 315.480103,168.852554 315.935303,170.958969 
	C316.694946,173.840515 317.454620,176.722076 318.509644,180.171265 
	C319.172241,181.156464 319.539459,181.574020 319.906677,181.991562 
	C319.906677,181.991562 319.921295,182.073761 320.015411,182.384064 
	C320.744659,183.132858 321.379761,183.571350 322.014893,184.009827 
	C323.736481,184.691864 325.458038,185.373901 327.708069,186.371262 
	C328.821198,186.742493 329.405914,186.798401 329.990601,186.854309 
	C338.989929,187.255508 338.985657,187.255508 338.992279,196.184143 
	C338.998444,204.491669 339.015076,212.799210 339.027893,221.937561 
	C339.064117,223.494934 339.099548,224.221497 339.135010,224.948044 
M305.978271,170.991516 
	C301.742645,170.991516 297.506989,170.991516 292.965576,170.991516 
	C292.965576,173.852432 292.965576,175.836624 292.203064,178.214890 
	C292.324921,178.772034 292.438843,179.814117 292.569794,179.816254 
	C297.373810,179.894974 302.188873,180.026184 306.975372,179.723022 
	C307.754333,179.673691 308.999542,177.640823 308.993744,176.530182 
	C308.982300,174.346176 308.243500,172.165970 307.805634,169.984192 
	C307.502625,170.309937 307.199646,170.635696 305.978271,170.991516 
M330.795227,207.270767 
	C328.253723,206.653641 325.728119,205.629074 323.166412,205.528870 
	C320.355408,205.418900 317.959015,206.204514 316.753021,202.226440 
	C316.198761,200.398117 313.081879,198.516006 310.898071,198.189377 
	C306.663605,197.556046 302.267151,198.020035 297.937927,198.001877 
	C294.523438,197.987564 292.833557,199.286575 292.937805,203.070923 
	C293.176147,211.722992 293.063934,220.384720 293.370514,229.876816 
	C303.293365,229.930450 313.216675,230.068283 323.138947,230.015671 
	C334.656708,229.954620 333.058868,231.652145 332.938019,220.006516 
	C332.896362,215.990509 331.701447,211.986450 330.795227,207.270767 
M311.795502,190.524292 
	C314.252869,185.058380 313.377014,181.906097 309.247009,182.077682 
	C304.020996,182.294815 298.815277,183.000320 293.383026,183.515839 
	C293.383026,185.931534 293.383026,188.293182 293.383026,190.873077 
	C299.497864,190.873077 305.239990,190.873077 311.795502,190.524292 
z"/>
<path fill="#000000" opacity="1.000000" stroke="none" 
	d="
M345.958527,254.902481 
	C348.694824,256.384369 351.431122,257.866211 354.236786,259.385681 
	C345.436676,272.232178 302.624664,272.725159 289.191467,261.934875 
	C290.044830,260.004547 290.840759,257.957642 292.111755,257.600189 
	C299.488403,255.525818 306.941711,252.553513 314.435974,252.350174 
	C324.912689,252.065918 335.448181,253.947556 345.958527,254.902481 
z"/>
<path fill="#000000" opacity="1.000000" stroke="none" 
	d="
M353.951477,274.897125 
	C355.593201,279.444305 352.946472,287.401794 348.961365,288.758514 
	C334.775360,293.588043 320.267303,295.655334 305.391571,292.619293 
	C301.412811,291.807281 297.397614,290.709503 293.706451,289.056580 
	C287.460938,286.259888 286.252502,281.917572 289.721344,275.476013 
	C292.319794,276.523621 294.406494,277.294769 296.506104,278.029144 
	C308.558685,282.244598 321.120453,281.532379 333.431519,280.739746 
	C340.368134,280.293121 347.117676,276.940582 353.951477,274.897125 
z"/>
<path fill="#000000" opacity="1.000000" stroke="none" 
	d="
M271.887268,241.862305 
	C272.593231,244.116531 273.742065,246.338226 273.910522,248.631927 
	C274.234741,253.046661 274.215179,257.517303 273.897064,261.933014 
	C273.774109,263.639343 272.452148,265.259308 270.829285,266.979858 
	C254.321732,267.052551 238.661316,267.063965 223.000900,267.075409 
	C222.817322,267.021545 222.633759,266.967712 222.205521,266.448181 
	C221.986465,260.012360 222.350311,254.018478 221.933029,248.079498 
	C221.585541,243.134491 223.611191,241.932648 228.106934,241.970230 
	C242.699051,242.092209 257.293640,241.920761 271.887268,241.862305 
M266.113037,246.995605 
	C254.630630,247.000015 243.148026,246.971725 231.666092,247.048264 
	C230.152359,247.058334 228.642197,247.603607 227.047470,248.836334 
	C227.058044,252.892334 227.068619,256.948334 227.366791,261.837952 
	C240.858368,261.837952 254.349930,261.837952 268.473175,261.837952 
	C267.965546,256.602600 267.506134,251.864304 266.113037,246.995605 
z"/>
<path fill="#000000" opacity="1.000000" stroke="none" 
	d="
M210.134644,304.884674 
	C209.898819,305.192352 209.662994,305.500031 208.705414,305.909637 
	C193.185379,306.001007 178.386292,305.906586 163.589340,306.042633 
	C160.166595,306.074097 158.831375,305.093262 158.952972,301.519104 
	C159.184631,294.709717 159.191803,287.880981 158.959381,281.071655 
	C158.805878,276.573792 160.528564,274.906342 165.043030,274.952881 
	C179.005997,275.096832 192.972046,274.940002 206.936905,274.899933 
	C207.825790,275.334290 208.714676,275.768646 209.446167,276.731201 
	C209.325439,284.183899 209.305374,291.109436 209.430878,298.032318 
	C209.472351,300.319946 209.889343,302.600739 210.134644,304.884674 
M203.101440,280.001740 
	C191.608276,280.005310 180.114914,279.976746 168.622223,280.051544 
	C167.118851,280.061340 165.618927,280.602081 164.043869,281.843964 
	C164.055481,288.230347 164.067108,294.616699 164.365738,301.837128 
	C177.864716,301.837128 191.363708,301.837128 205.000000,301.837128 
	C205.000000,298.218506 205.122772,295.076965 204.969055,291.949066 
	C204.775360,288.007629 204.355850,284.077301 203.101440,280.001740 
z"/>
<path fill="#000000" opacity="1.000000" stroke="none" 
	d="
M353.951111,298.896881 
	C356.228180,304.747040 354.330353,308.645294 348.772919,311.019562 
	C341.245056,314.235596 333.303009,314.341278 325.382965,315.174988 
	C313.368286,316.439667 301.907867,315.014465 290.954224,309.871216 
	C290.375549,309.599487 289.907654,309.091766 289.202698,307.995667 
	C288.598297,304.978821 288.179413,302.660187 287.738739,300.221069 
	C288.909851,300.127106 289.470734,299.904022 289.850952,300.077301 
	C303.824127,306.445038 318.722778,305.586578 333.350067,304.745209 
	C340.306183,304.345123 347.089508,300.940460 353.951111,298.896881 
z"/>
<path fill="#000000" opacity="1.000000" stroke="none" 
	d="
M353.960602,320.899506 
	C356.073029,326.380676 355.152802,329.584656 350.333801,331.774414 
	C337.899200,337.424744 324.881622,339.245667 311.390503,336.930481 
	C306.004944,336.006256 300.683350,334.709259 295.179871,332.825989 
	C295.027100,329.437500 295.027100,326.804962 295.027100,325.528778 
	C306.078705,326.042236 316.787445,326.756775 327.506226,326.971832 
	C336.762726,327.157562 345.770599,325.654694 353.960602,320.899506 
z"/>
<path fill="#F2F7F6" opacity="1.000000" stroke="none" 
	d="
M206.746399,274.512451 
	C192.972046,274.940002 179.005997,275.096832 165.043030,274.952881 
	C160.528564,274.906342 158.805878,276.573792 158.959381,281.071655 
	C159.191803,287.880981 159.184631,294.709717 158.952972,301.519104 
	C158.831375,305.093262 160.166595,306.074097 163.589340,306.042633 
	C178.386292,305.906586 193.185379,306.001007 208.446625,306.051208 
	C207.406342,306.457306 205.904938,307.133026 204.399582,307.141937 
	C190.610397,307.223450 176.819046,307.075958 163.031723,307.255890 
	C158.749237,307.311737 156.991867,305.817017 157.100311,301.484253 
	C157.287338,294.012604 157.189072,286.532623 157.137970,279.056671 
	C157.114136,275.571503 158.534302,273.907898 162.206787,273.942291 
	C176.989105,274.080841 191.772736,274.076508 206.746399,274.512451 
z"/>
<path fill="#EDF3F2" opacity="1.000000" stroke="none" 
	d="
M353.826233,298.538361 
	C347.089508,300.940460 340.306183,304.345123 333.350067,304.745209 
	C318.722778,305.586578 303.824127,306.445038 289.850952,300.077301 
	C289.470734,299.904022 288.909851,300.127106 287.738739,300.221069 
	C288.179413,302.660187 288.598297,304.978821 288.989380,307.726685 
	C287.968231,304.789612 286.974915,301.423279 286.084503,298.405731 
	C296.176025,300.124786 305.329071,302.116302 314.589020,303.153717 
	C326.610077,304.500427 338.446442,302.932892 349.917053,298.921600 
	C351.118073,298.501587 352.437073,298.418976 353.826233,298.538361 
z"/>
<path fill="#E7EFED" opacity="1.000000" stroke="none" 
	d="
M353.837280,320.538879 
	C345.770599,325.654694 336.762726,327.157562 327.506226,326.971832 
	C316.787445,326.756775 306.078705,326.042236 295.027100,325.528778 
	C295.027100,326.804962 295.027100,329.437500 294.963440,332.516357 
	C294.274170,332.107910 293.186584,331.292755 293.109222,330.390961 
	C292.872223,327.628082 293.023010,324.831940 293.023010,321.537201 
	C305.295135,325.529633 317.390015,326.118805 329.509430,324.958588 
	C335.893890,324.347382 342.165527,322.553375 348.486176,321.283813 
	C350.232361,320.933075 351.971527,320.547699 353.837280,320.538879 
z"/>
<path fill="#EDF3F2" opacity="1.000000" stroke="none" 
	d="
M353.820007,274.536377 
	C347.117676,276.940582 340.368134,280.293121 333.431519,280.739746 
	C321.120453,281.532379 308.558685,282.244598 296.506104,278.029144 
	C294.406494,277.294769 292.319794,276.523621 290.122620,275.412201 
	C293.066925,275.701752 296.109711,276.378632 299.165527,276.990417 
	C316.261230,280.412842 333.197937,280.365540 349.894379,274.707458 
	C351.082703,274.304749 352.420319,274.342621 353.820007,274.536377 
z"/>
<path fill="#E7EFED" opacity="1.000000" stroke="none" 
	d="
M345.862793,254.554260 
	C335.448181,253.947556 324.912689,252.065918 314.435974,252.350174 
	C306.941711,252.553513 299.488403,255.525818 292.111755,257.600189 
	C290.840759,257.957642 290.044830,260.004547 288.979126,261.661072 
	C285.495270,260.191498 286.824341,258.166168 289.246124,257.156006 
	C294.402679,255.005112 299.640869,252.677597 305.077820,251.644287 
	C318.777344,249.040634 332.459076,249.326782 345.862793,254.554260 
z"/>
<path fill="#000000" opacity="1.000000" stroke="none" 
	d="
M305.053040,241.932404 
	C297.560760,244.060364 290.068481,246.188339 281.953430,248.493210 
	C281.953430,247.018570 281.953430,245.421585 281.970917,243.046570 
	C282.227570,240.884476 282.466705,239.500412 282.861816,238.340073 
	C283.339935,238.676498 283.662079,238.789215 283.984253,238.901932 
	C284.769470,239.271652 285.554657,239.641388 286.843933,240.432739 
	C289.144287,240.900589 290.944611,240.885834 292.736023,241.005402 
	C296.844025,241.279572 300.947632,241.619293 305.053040,241.932404 
z"/>
<path fill="#E7EFED" opacity="1.000000" stroke="none" 
	d="
M271.607666,241.556061 
	C257.293640,241.920761 242.699051,242.092209 228.106934,241.970230 
	C223.611191,241.932648 221.585541,243.134491 221.933029,248.079498 
	C222.350311,254.018478 221.986465,260.012360 221.918671,266.440369 
	C221.312302,265.595276 220.301819,264.306061 220.260956,262.986847 
	C220.081635,257.196594 220.167221,251.397629 220.188583,245.601959 
	C220.199432,242.658905 221.470123,240.926956 224.663086,240.951263 
	C240.217941,241.069595 255.773041,241.153641 271.607666,241.556061 
z"/>
<path fill="#000000" opacity="1.000000" stroke="none" 
	d="
M243.718597,280.772888 
	C242.653137,279.276825 241.976624,277.916901 241.300125,276.557007 
	C242.600296,276.036896 243.917496,275.045471 245.197220,275.091675 
	C248.145325,275.198059 253.136292,273.012665 253.185730,277.704865 
	C253.230072,281.915070 248.276443,280.840302 245.097672,280.984406 
	C244.769455,280.999329 244.437668,280.936035 243.718597,280.772888 
z"/>
<path fill="#000000" opacity="1.000000" stroke="none" 
	d="
M230.722351,280.030731 
	C226.399490,281.367462 222.534653,282.490845 220.902481,275.270142 
	C224.661697,275.270142 228.256622,274.592194 231.411072,275.479706 
	C234.043518,276.220367 234.899063,278.699860 230.722351,280.030731 
z"/>
<path fill="#000000" opacity="1.000000" stroke="none" 
	d="
M273.449097,277.420013 
	C270.946014,281.401703 267.000244,280.536102 263.480408,280.508179 
	C262.690308,280.501953 261.549225,278.413269 261.313751,277.145081 
	C261.216766,276.622955 263.168396,275.036102 264.044128,275.140656 
	C267.186066,275.515625 271.043396,272.887634 273.449097,277.420013 
z"/>
<path fill="#FFFFFF" opacity="1.000000" stroke="none" 
	d="
M285.808685,169.006287 
	C285.846222,188.300369 285.883789,207.594437 285.888794,227.344116 
	C285.551971,226.238678 284.987427,224.678329 284.983337,223.116501 
	C284.936829,205.386307 284.976044,187.655899 285.247253,169.467194 
	C285.502197,169.008835 285.808685,169.006287 285.808685,169.006287 
z"/>
<path fill="#000000" opacity="1.000000" stroke="none" 
	d="
M225.288818,302.111694 
	C228.363297,302.473328 231.016159,302.834656 233.669006,303.196014 
	C233.662949,303.998474 233.656891,304.800903 233.650833,305.603363 
	C230.747498,306.031372 227.844467,306.746216 224.940659,306.749359 
	C223.742661,306.750641 222.542999,305.223419 221.344086,304.391449 
	C222.518463,303.631409 223.692841,302.871399 225.288818,302.111694 
z"/>
<path fill="#000000" opacity="1.000000" stroke="none" 
	d="
M262.818115,306.665833 
	C260.928925,304.008698 260.736389,302.127350 264.511230,302.115570 
	C266.164642,302.110413 267.881439,301.835571 269.450867,302.197479 
	C270.650330,302.474152 271.663269,303.559601 272.759186,304.285278 
	C271.718842,305.134644 270.777008,306.498260 269.616547,306.720520 
	C267.545105,307.117310 265.341736,306.825104 262.818115,306.665833 
z"/>
<path fill="#000000" opacity="1.000000" stroke="none" 
	d="
M248.671295,302.111145 
	C250.425583,302.857666 251.760529,303.604523 253.567703,304.615631 
	C247.382233,308.213287 243.207886,307.614594 240.883270,302.583679 
	C243.596573,302.409821 245.924255,302.260681 248.671295,302.111145 
z"/>
<path fill="#000000" opacity="1.000000" stroke="none" 
	d="
M252.050507,289.412262 
	C252.526093,290.054993 253.001694,290.697693 253.650482,291.574463 
	C250.441711,294.974365 246.421921,294.084839 242.293823,292.985229 
	C243.135483,291.214142 244.061172,289.476898 245.279205,289.239441 
	C247.442871,288.817719 249.783752,289.305176 252.050507,289.412262 
z"/>
<path fill="#000000" opacity="1.000000" stroke="none" 
	d="
M232.044357,289.475311 
	C232.519943,290.110046 232.995529,290.744781 234.285965,292.467041 
	C231.097473,293.044586 228.477066,293.519226 225.365631,293.624878 
	C224.004227,292.301575 223.133850,291.347229 222.263489,290.392914 
	C223.406860,289.958679 224.534424,289.217224 225.697113,289.157318 
	C227.801804,289.048859 229.927460,289.346924 232.044357,289.475311 
z"/>
<path fill="#85B1A7" opacity="1.000000" stroke="none" 
	d="
M223.272827,267.398102 
	C238.661316,267.063965 254.321732,267.052551 270.444946,267.075897 
	C270.345398,267.390198 269.782562,267.914703 269.220795,267.913544 
	C253.995392,267.882141 238.770081,267.796936 223.272827,267.398102 
z"/>
<path fill="#000000" opacity="1.000000" stroke="none" 
	d="
M272.042389,289.306702 
	C274.460480,294.356262 270.353699,293.473816 267.292053,293.603363 
	C265.247833,292.417572 263.696564,291.618103 262.145264,290.818604 
	C263.816315,290.233917 265.449127,289.409668 267.169678,289.135010 
	C268.744629,288.883575 270.414398,289.225983 272.042389,289.306702 
z"/>
<path fill="#4E8E7F" opacity="1.000000" stroke="none" 
	d="
M210.430725,304.602570 
	C209.889343,302.600739 209.472351,300.319946 209.430878,298.032318 
	C209.305374,291.109436 209.325439,284.183899 209.605469,276.994873 
	C210.296783,278.569519 210.984222,280.407593 210.990952,282.248108 
	C211.017853,289.605133 210.833206,296.962952 210.430725,304.602570 
z"/>
<path fill="#F6FAF9" opacity="1.000000" stroke="none" 
	d="
M315.969757,170.506958 
	C315.480103,168.852554 315.024872,166.746155 314.291992,163.354965 
	C306.159180,164.078537 297.498199,164.849106 288.444153,165.379547 
	C289.146973,164.415909 290.229340,163.090118 291.340820,163.065262 
	C299.380463,162.885590 307.425995,162.968857 316.004181,162.968857 
	C316.004181,165.541428 316.004181,167.798187 315.969757,170.506958 
z"/>
<path fill="#D5E4E1" opacity="1.000000" stroke="none" 
	d="
M272.113098,288.887024 
	C270.414398,289.225983 268.744629,288.883575 267.169678,289.135010 
	C265.449127,289.409668 263.816315,290.233917 262.145264,290.818604 
	C263.696564,291.618103 265.247833,292.417572 266.904633,293.587585 
	C265.687469,293.974579 264.187592,294.388855 263.090088,293.899933 
	C261.903351,293.371277 260.208710,291.878510 260.325531,291.023499 
	C260.498688,289.756256 262.017883,287.758911 263.059967,287.697388 
	C266.075592,287.519348 269.139069,288.152557 272.113098,288.887024 
z"/>
<path fill="#C4D9D5" opacity="1.000000" stroke="none" 
	d="
M232.215881,289.062317 
	C229.927460,289.346924 227.801804,289.048859 225.697113,289.157318 
	C224.534424,289.217224 223.406860,289.958679 222.263489,290.392914 
	C223.133850,291.347229 224.004227,292.301575 224.956268,293.612244 
	C223.425323,292.821198 221.812744,291.673889 220.200150,290.526550 
	C221.799728,289.437622 223.325134,287.606934 225.016693,287.437805 
	C227.409271,287.198547 229.924561,288.186157 232.215881,289.062317 
z"/>
<path fill="#C4D9D5" opacity="1.000000" stroke="none" 
	d="
M252.175751,288.995300 
	C249.783752,289.305176 247.442871,288.817719 245.279205,289.239441 
	C244.061172,289.476898 243.135483,291.214142 242.011108,292.693481 
	C239.582886,290.241058 239.807816,288.037415 242.917343,287.683411 
	C245.971680,287.335663 249.167358,288.229401 252.175751,288.995300 
z"/>
<path fill="#C4D9D5" opacity="1.000000" stroke="none" 
	d="
M305.438141,241.925079 
	C300.947632,241.619293 296.844025,241.279572 292.736023,241.005402 
	C290.944611,240.885834 289.144287,240.900589 287.177734,240.450592 
	C295.070984,240.046829 303.134521,240.046829 311.198029,240.046829 
	C311.237030,240.230011 311.276031,240.413193 311.315002,240.596375 
	C309.484436,241.036819 307.653839,241.477280 305.438141,241.925079 
z"/>
<path fill="#09624D" opacity="1.000000" stroke="none" 
	d="
M324.474976,174.487793 
	C323.904968,173.420410 323.580627,172.577560 322.772369,170.477158 
	C326.605316,172.892380 329.327301,174.607574 332.049316,176.322769 
	C331.848541,176.725220 331.647797,177.127670 331.447021,177.530136 
	C329.204895,176.590851 326.962769,175.651581 324.474976,174.487793 
z"/>
<path fill="#09624D" opacity="1.000000" stroke="none" 
	d="
M282.705872,238.116348 
	C282.466705,239.500412 282.227570,240.884476 281.927826,242.628784 
	C281.443451,240.956299 281.019653,238.923584 280.748901,236.571503 
	C281.144043,236.219818 281.386169,236.187500 281.997986,236.128296 
	C282.540558,236.150833 282.688324,236.241409 282.807556,236.857605 
	C282.771423,237.600189 282.738647,237.858276 282.705872,238.116348 
z"/>
<path fill="#09624D" opacity="1.000000" stroke="none" 
	d="
M329.949341,186.562469 
	C329.405914,186.798401 328.821198,186.742493 328.058533,186.441467 
	C328.556427,186.221100 329.232269,186.245865 329.949341,186.562469 
z"/>
<path fill="#09624D" opacity="1.000000" stroke="none" 
	d="
M321.975403,183.687164 
	C321.379761,183.571350 320.744659,183.132858 320.056030,182.393768 
	C320.646973,182.516937 321.291412,182.940704 321.975403,183.687164 
z"/>
<path fill="#09624D" opacity="1.000000" stroke="none" 
	d="
M339.358643,224.762665 
	C339.099548,224.221497 339.064117,223.494934 339.074707,222.406952 
	C339.274567,222.889450 339.428436,223.733353 339.358643,224.762665 
z"/>
<path fill="#418676" opacity="1.000000" stroke="none" 
	d="
M282.861816,238.340073 
	C282.738647,237.858276 282.771423,237.600189 282.896393,236.959656 
	C283.320221,237.132828 283.651917,237.688446 283.983917,238.572998 
	C283.662079,238.789215 283.339935,238.676498 282.861816,238.340073 
z"/>
<path fill="#09624D" opacity="1.000000" stroke="none" 
	d="
M319.911285,181.675415 
	C319.539459,181.574020 319.172241,181.156464 318.758972,180.428421 
	C319.113922,180.531693 319.514893,180.945480 319.911285,181.675415 
z"/>
<path fill="#F6FAF9" opacity="1.000000" stroke="none" 
	d="
M287.713013,165.055405 
	C288.010193,165.637451 287.875061,166.227036 287.400452,166.945297 
	C287.134186,166.403641 287.207428,165.733292 287.713013,165.055405 
z"/>
<path fill="#F6FAF9" opacity="1.000000" stroke="none" 
	d="
M285.883820,168.755890 
	C285.808685,169.006287 285.502197,169.008835 285.348969,169.008850 
	C285.289886,168.610321 285.384033,168.211777 285.786804,167.906982 
	C286.049896,168.168991 286.004425,168.337234 285.883820,168.755890 
z"/>
<path fill="#F6FAF9" opacity="1.000000" stroke="none" 
	d="
M286.724304,166.826660 
	C286.911530,167.340302 286.727203,167.652420 286.268188,168.029755 
	C286.113251,167.605011 286.233002,167.115067 286.724304,166.826660 
z"/>
<path fill="#055F4A" opacity="1.000000" stroke="none" 
	d="
M293.094055,229.042526 
	C293.063934,220.384720 293.176147,211.722992 292.937805,203.070923 
	C292.833557,199.286575 294.523438,197.987564 297.937927,198.001877 
	C302.267151,198.020035 306.663605,197.556046 310.898071,198.189377 
	C313.081879,198.516006 316.198761,200.398117 316.753021,202.226440 
	C317.959015,206.204514 320.355408,205.418900 323.166412,205.528870 
	C325.728119,205.629074 328.253723,206.653641 330.926025,208.094452 
	C331.056793,215.464035 331.056793,222.009949 331.056793,229.042526 
	C318.134613,229.042526 305.614349,229.042526 293.094055,229.042526 
M308.023895,206.268707 
	C305.522339,205.871078 303.020813,205.473434 299.658264,204.938950 
	C300.143951,211.077591 300.533691,216.003418 301.826263,220.955780 
	C303.732544,220.955780 305.638855,220.955780 307.985992,220.955780 
	C307.985992,215.890625 307.985992,211.487167 308.023895,206.268707 
M318.745117,220.917175 
	C320.344421,220.917175 321.943726,220.917175 323.530212,220.917175 
	C323.530212,218.139465 323.530212,215.963821 323.530212,213.504089 
	C321.151978,213.839554 319.279236,214.103714 316.747131,214.460876 
	C317.168243,216.745331 317.535370,218.736954 318.745117,220.917175 
z"/>
<path fill="#055F4A" opacity="1.000000" stroke="none" 
	d="
M311.388824,190.698685 
	C305.239990,190.873077 299.497864,190.873077 293.383026,190.873077 
	C293.383026,188.293182 293.383026,185.931534 293.383026,183.515839 
	C298.815277,183.000320 304.020996,182.294815 309.247009,182.077682 
	C313.377014,181.906097 314.252869,185.058380 311.388824,190.698685 
z"/>
<path fill="#055F4A" opacity="1.000000" stroke="none" 
	d="
M292.965576,177.820801 
	C292.965576,175.836624 292.965576,173.852432 292.965576,170.991516 
	C297.506989,170.991516 301.742645,170.991516 306.791534,171.197433 
	C307.604797,173.500595 307.604797,175.597839 307.604797,177.820801 
	C302.533752,177.820801 297.749664,177.820801 292.965576,177.820801 
z"/>
<path fill="#E7EFED" opacity="1.000000" stroke="none" 
	d="
M293.232300,229.459671 
	C305.614349,229.042526 318.134613,229.042526 331.056793,229.042526 
	C331.056793,222.009949 331.056793,215.464035 331.045044,208.447540 
	C331.701447,211.986450 332.896362,215.990509 332.938019,220.006516 
	C333.058868,231.652145 334.656708,229.954620 323.138947,230.015671 
	C313.216675,230.068283 303.293365,229.930450 293.232300,229.459671 
z"/>
<path fill="#9EC1BA" opacity="1.000000" stroke="none" 
	d="
M292.584320,178.017853 
	C297.749664,177.820801 302.533752,177.820801 307.604797,177.820801 
	C307.604797,175.597839 307.604797,173.500595 307.250732,171.182404 
	C307.199646,170.635696 307.502625,170.309937 307.805603,169.984192 
	C308.243500,172.165970 308.982300,174.346176 308.993744,176.530182 
	C308.999542,177.640823 307.754333,179.673691 306.975372,179.723022 
	C302.188873,180.026184 297.373810,179.894974 292.569794,179.816254 
	C292.438843,179.814117 292.324921,178.772034 292.584320,178.017853 
z"/>
<path fill="#09624D" opacity="1.000000" stroke="none" 
	d="
M227.079193,261.004333 
	C227.068619,256.948334 227.058044,252.892334 227.547607,248.394714 
	C240.953918,248.025589 253.860092,248.098083 266.820740,248.620911 
	C266.875183,252.845139 266.875183,256.619049 266.875183,261.004333 
	C253.255936,261.004333 240.167572,261.004333 227.079193,261.004333 
z"/>
<path fill="#FFFFFF" opacity="1.000000" stroke="none" 
	d="
M227.222992,261.421143 
	C240.167572,261.004333 253.255936,261.004333 266.875183,261.004333 
	C266.875183,256.619049 266.875183,252.845139 266.904358,248.363388 
	C266.971252,247.479034 267.008972,247.302521 267.046692,247.126007 
	C267.506134,251.864304 267.965546,256.602600 268.473175,261.837952 
	C254.349930,261.837952 240.858368,261.837952 227.222992,261.421143 
z"/>
<path fill="#85B1A7" opacity="1.000000" stroke="none" 
	d="
M266.579865,247.060806 
	C267.008972,247.302521 266.971252,247.479034 266.849915,247.913055 
	C253.860092,248.098083 240.953918,248.025589 227.589050,247.927048 
	C228.642197,247.603607 230.152359,247.058334 231.666092,247.048264 
	C243.148026,246.971725 254.630630,247.000015 266.579865,247.060806 
z"/>
<path fill="#08614C" opacity="1.000000" stroke="none" 
	d="
M164.078720,301.003082 
	C164.067108,294.616699 164.055481,288.230347 164.539978,281.400513 
	C177.964706,281.056610 190.893295,281.156128 203.828323,281.707916 
	C203.834747,288.239685 203.834747,294.319183 203.834747,301.003082 
	C190.194321,301.003082 177.136520,301.003082 164.078720,301.003082 
z"/>
<path fill="#FFFFFF" opacity="1.000000" stroke="none" 
	d="
M164.222229,301.420105 
	C177.136520,301.003082 190.194321,301.003082 203.834747,301.003082 
	C203.834747,294.319183 203.834747,288.239685 203.897354,281.432617 
	C203.984558,280.517426 204.009155,280.329803 204.033768,280.142181 
	C204.355850,284.077301 204.775360,288.007629 204.969055,291.949066 
	C205.122772,295.076965 205.000000,298.218506 205.000000,301.837128 
	C191.363708,301.837128 177.864716,301.837128 164.222229,301.420105 
z"/>
<path fill="#C4D9D5" opacity="1.000000" stroke="none" 
	d="
M203.567596,280.071960 
	C204.009155,280.329803 203.984558,280.517426 203.890930,280.980347 
	C190.893295,281.156128 177.964706,281.056610 164.576752,280.927002 
	C165.618927,280.602081 167.118851,280.061340 168.622223,280.051544 
	C180.114914,279.976746 191.608276,280.005310 203.567596,280.071960 
z"/>
<path fill="#000000" opacity="1.000000" stroke="none" 
	d="
M307.985992,207.083694 
	C307.985992,211.487167 307.985992,215.890625 307.985992,220.955780 
	C305.638855,220.955780 303.732544,220.955780 301.378784,220.507721 
	C301.473724,215.789093 302.016113,211.518555 302.579346,207.083694 
	C304.395477,207.083694 306.190735,207.083694 307.985992,207.083694 
z"/>
<path fill="#000000" opacity="1.000000" stroke="none" 
	d="
M318.323792,220.822876 
	C317.535370,218.736954 317.168243,216.745331 316.747131,214.460876 
	C319.279236,214.103714 321.151978,213.839554 323.530212,213.504089 
	C323.530212,215.963821 323.530212,218.139465 323.530212,220.917175 
	C321.943726,220.917175 320.344421,220.917175 318.323792,220.822876 
z"/>
<path fill="#C4D9D5" opacity="1.000000" stroke="none" 
	d="
M308.004944,206.676208 
	C306.190735,207.083694 304.395477,207.083694 302.579346,207.083694 
	C302.016113,211.518555 301.473724,215.789093 300.927368,220.494446 
	C300.533691,216.003418 300.143951,211.077591 299.658264,204.938950 
	C303.020813,205.473434 305.522339,205.871078 308.004944,206.676208 
z"/>
</svg>